<?xml version="1.0" encoding="iso-8859-1"?>
<!-- Generator: Adobe Illustrator 21.0.0, SVG Export Plug-In . SVG Version: 6.00 Build 0)  -->
<svg version="1.1" id="Capa_1" xmlns="http://www.w3.org/2000/svg" xmlns:xlink="http://www.w3.org/1999/xlink" x="0px" y="0px"
	 viewBox="0 0 512 512" style="enable-background:new 0 0 512 512;" xml:space="preserve">
<g id="XMLID_542_">
	<path id="XMLID_543_" d="M10.36,346.264c4.142,0,7.5-3.357,7.5-7.5V43.644C17.86,27.85,30.71,15,46.504,15h338.165
		c4.142,0,7.5-3.357,7.5-7.5s-3.358-7.5-7.5-7.5H46.504C22.439,0,2.86,19.578,2.86,43.644v295.12
		C2.86,342.906,6.218,346.264,10.36,346.264z"/>
	<path id="XMLID_544_" d="M465.496,0h-48.165c-4.142,0-7.5,3.357-7.5,7.5s3.358,7.5,7.5,7.5h48.165
		c15.794,0,28.644,12.85,28.644,28.644v94.026c0,4.143,3.358,7.5,7.5,7.5s7.5-3.357,7.5-7.5V43.644
		C509.14,19.578,489.561,0,465.496,0z"/>
	<path id="XMLID_545_" d="M501.64,162.83c-4.142,0-7.5,3.357-7.5,7.5v250.352c0,15.536-12.435,28.214-27.873,28.625
		c-11.97-90.102-53.118-173.674-118.384-238.939c-75.95-75.95-176.69-119.239-283.663-121.895c-4.75-0.1-9.243,1.648-12.652,4.974
		c-3.428,3.345-5.316,7.823-5.316,12.612v69.501c0,9.569,7.467,17.29,16.998,17.577c148.789,4.476,271.56,113.609,297.116,256.189
		h-49.085c-10.539-49.256-35.1-94.677-71.39-130.966c-46.97-46.971-109.231-74.316-175.317-77.003
		c-4.836-0.195-9.423,1.543-12.915,4.896c-3.487,3.349-5.408,7.854-5.408,12.688v59.311c0,9.342,7.325,17.054,16.677,17.558
		c41.522,2.231,80.667,19.737,110.221,49.292c18.301,18.301,31.976,40.282,40.272,64.226h-57.387
		c-3.68-26.866-26.767-47.634-54.628-47.634s-50.948,20.768-54.628,47.634h-0.273c-15.794,0-28.644-12.85-28.644-28.645v-49.436
		c0-4.143-3.358-7.5-7.5-7.5s-7.5,3.357-7.5,7.5v49.436c0,24.065,19.579,43.645,43.644,43.645h0.269
		C50.436,491.211,73.532,512,101.406,512s50.969-20.789,54.633-47.674h61.811c2.476,10.102,4.027,20.472,4.593,30.997
		C222.945,504.675,230.657,512,240,512h59.311c4.833,0,9.34-1.921,12.689-5.408c3.352-3.491,5.09-8.078,4.894-12.915
		c-0.402-9.883-1.366-19.677-2.854-29.351h48.64c1.302,10.083,2.124,20.316,2.436,30.676c0.287,9.531,8.008,16.998,17.577,16.998
		h69.501c4.789,0,9.268-1.888,12.612-5.315c3.326-3.409,5.092-7.902,4.974-12.652c-0.248-9.986-0.851-19.918-1.8-29.781
		c22.914-1.292,41.162-20.337,41.162-43.569V170.33C509.14,166.188,505.782,162.83,501.64,162.83z M101.406,497
		c-22.141,0-40.154-18.013-40.154-40.154c0-22.141,18.013-40.153,40.154-40.153s40.154,18.013,40.154,40.153
		C141.56,478.987,123.547,497,101.406,497z M301.179,496.202C300.893,496.5,300.27,497,299.31,497H240
		c-1.371,0-2.503-1.09-2.578-2.481c-2.431-45.224-21.49-87.85-53.665-120.024c-32.175-32.175-74.8-51.233-120.022-53.664
		c-1.392-0.075-2.482-1.208-2.482-2.579V258.94c0-0.959,0.5-1.582,0.797-1.868c0.289-0.277,0.898-0.729,1.805-0.729
		c0.037,0,0.074,0.001,0.112,0.003c62.31,2.532,121.021,28.322,165.319,72.621c44.298,44.298,70.088,103.01,72.621,165.319
		C301.944,495.255,301.467,495.902,301.179,496.202z M454.066,496.21c-0.288,0.295-0.914,0.79-1.875,0.79h-69.501
		c-1.384,0-2.543-1.099-2.583-2.449c-5.182-172.242-144.164-311.226-316.407-316.408c-1.35-0.04-2.449-1.199-2.449-2.583v-69.501
		c0-0.96,0.495-1.586,0.79-1.874c0.338-0.33,0.912-0.717,1.738-0.717c0.022,0,0.044,0,0.067,0.001c0,0,0,0,0,0
		c103.107,2.559,200.213,44.289,273.429,117.505c73.216,73.216,114.947,170.322,117.506,273.432
		C454.804,495.268,454.405,495.863,454.066,496.21z"/>
	<path id="XMLID_550_" d="M377.797,62.366c-4.142,0-7.5,3.357-7.5,7.5s3.358,7.5,7.5,7.5h14.238c4.142,0,7.5-3.357,7.5-7.5
		s-3.358-7.5-7.5-7.5H377.797z"/>
	<path id="XMLID_551_" d="M441.394,93.635h-63.596c-4.142,0-7.5,3.357-7.5,7.5s3.358,7.5,7.5,7.5h63.596c4.142,0,7.5-3.357,7.5-7.5
		S445.536,93.635,441.394,93.635z"/>
	<path id="XMLID_552_" d="M441.394,117.361h-63.596c-4.142,0-7.5,3.357-7.5,7.5s3.358,7.5,7.5,7.5h63.596c4.142,0,7.5-3.357,7.5-7.5
		S445.536,117.361,441.394,117.361z"/>
</g>
<g>
</g>
<g>
</g>
<g>
</g>
<g>
</g>
<g>
</g>
<g>
</g>
<g>
</g>
<g>
</g>
<g>
</g>
<g>
</g>
<g>
</g>
<g>
</g>
<g>
</g>
<g>
</g>
<g>
</g>
</svg>
